<svg id="Ebene_1" data-name="Ebene 1" xmlns="http://www.w3.org/2000/svg" viewBox="0 0 280 140"><defs><style>.cls-1,.cls-5{fill:#fff;}.cls-2{fill:#bef3f3;}.cls-2,.cls-3,.cls-5{isolation:isolate;}.cls-3{fill:#29d7d7;}.cls-4{fill:none;stroke:#000;stroke-opacity:0.04;}</style></defs><rect class="cls-1" width="280" height="140"/><rect class="cls-2" width="280" height="140"/><path class="cls-3" d="M30,34a4,4,0,0,1,4-4H246a4,4,0,0,1,4,4v73a4,4,0,0,1-4,4H34a4,4,0,0,1-4-4Z"/><path class="cls-4" d="M246,29.5H34A4.49,4.49,0,0,0,29.5,34v73a4.49,4.49,0,0,0,4.5,4.5H246a4.49,4.49,0,0,0,4.5-4.5V34A4.49,4.49,0,0,0,246,29.5Z"/><rect class="cls-2" x="30" y="52" width="220" height="1"/><path class="cls-5" d="M43.25,39.66a2.61,2.61,0,0,0-2.77-2.29c-1.71,0-3,1.24-3,3.36s1.27,3.36,3,3.36a2.66,2.66,0,0,0,2.77-2.26h-1.2A1.49,1.49,0,0,1,40.49,43c-1.06,0-1.82-.8-1.82-2.3s.76-2.3,1.83-2.3a1.47,1.47,0,0,1,1.55,1.23ZM45.7,44.1a1.52,1.52,0,0,0,1.44-.77h0V44h1.11V40.71c0-1.29-1.06-1.68-2-1.68a2,2,0,0,0-2.08,1.35l1.08.16a1,1,0,0,1,1-.63c.54,0,.83.28.83.76v0c0,.33-.35.35-1.21.44s-1.87.39-1.87,1.49A1.47,1.47,0,0,0,45.7,44.1Zm.3-.85c-.49,0-.83-.22-.83-.65s.39-.63.9-.7a3.46,3.46,0,0,0,1.06-.24v.58A1,1,0,0,1,46,43.25Zm3.45.75h1.16V41.11a1,1,0,0,1,1.1-1.06,1.86,1.86,0,0,1,.54.07V39.05a2.63,2.63,0,0,0-.41,0,1.23,1.23,0,0,0-1.22.89h0v-.82H49.45Zm5.19.09a1.51,1.51,0,0,0,1.41-.86h.07V44h1.13V37.45H56.09V39.9h0A1.47,1.47,0,0,0,54.64,39c-1.13,0-2,.89-2,2.52S53.48,44.09,54.64,44.09Zm.32-1c-.76,0-1.16-.67-1.16-1.59S54.19,40,55,40s1.16.61,1.16,1.57S55.7,43.14,55,43.14Zm8.21-4h-1V37.91H61v1.18h-.69V40H61v2.73a1.33,1.33,0,0,0,1.54,1.35,2.38,2.38,0,0,0,.68-.12l-.2-.9a1.83,1.83,0,0,1-.33,0c-.3,0-.53-.1-.53-.57V40h1Zm1,4.91h1.15V39.09H64.14Zm.58-5.61a.63.63,0,1,0-.67-.62A.65.65,0,0,0,64.72,38.39Zm4.22.7H68V37.91H66.81v1.18h-.7V40h.7v2.73a1.32,1.32,0,0,0,1.53,1.35A2.3,2.3,0,0,0,69,44l-.19-.9a1.84,1.84,0,0,1-.34,0c-.29,0-.52-.1-.52-.57V40h1Zm2.23-1.64H70V44h1.16Zm3.36,6.65a2,2,0,0,0,2.13-1.42l-1.08-.12a1,1,0,0,1-1,.63,1.21,1.21,0,0,1-1.25-1.33h3.42v-.35A2.18,2.18,0,0,0,74.47,39a2.31,2.31,0,0,0-2.33,2.54A2.29,2.29,0,0,0,74.53,44.1Zm-1.24-3a1.19,1.19,0,0,1,1.19-1.15,1.08,1.08,0,0,1,1.12,1.15Z"/><circle class="cls-2" cx="238.89" cy="41.11" r="5.11"/></svg>